<svg version="1.1" id="Layer_1" xmlns="http://www.w3.org/2000/svg" xmlns:xlink="http://www.w3.org/1999/xlink" x="0px" y="0px" width="100%" viewBox="0 0 1440 330" enable-background="new 0 0 1440 330" xml:space="preserve">

<path fill="#FFBD59" opacity="1.000000" stroke="none" d="
M506.326477,268.715302 
	C469.264771,206.232391 432.509583,143.963943 395.357727,81.023399 
	C501.067963,81.023399 605.821594,81.023399 710.788269,81.023399 
	C710.928589,79.263725 711.043396,77.824715 711.270142,74.981308 
	C740.638306,97.983536 769.349304,120.471031 798.999451,143.694107 
	C798.999451,130.307663 798.999390,118.239174 798.999451,106.170685 
	C798.999512,98.838455 799.078369,91.504959 798.961060,84.174614 
	C798.914673,81.278839 799.776794,79.947060 802.929565,79.955612 
	C831.407715,80.032913 859.886108,80.000847 889.000000,80.000847 
	C889.000000,81.790733 889.000000,83.383202 889.000000,84.975670 
	C889.000000,140.967255 888.944946,196.958984 889.099182,252.950150 
	C889.112244,257.698883 887.917480,259.132660 883.010498,259.117004 
	C827.686035,258.940338 772.360657,258.945099 717.036133,259.110199 
	C712.199097,259.124603 710.882385,257.782501 710.896667,252.963699 
	C711.059204,197.972427 711.000000,142.980530 711.000000,87.988792 
	C711.000000,86.228920 711.000000,84.469055 711.000000,81.431274 
	C673.669373,144.660278 637.002197,206.765579 599.678711,269.982605 
	C578.441101,234.459900 557.487671,199.412552 536.524963,164.349609 
	C532.725769,166.744019 530.867126,169.188873 534.279053,173.963028 
	C538.880371,180.401566 542.589600,187.477173 546.689941,194.274414 
	C548.502869,197.279709 549.291992,199.831299 547.036011,203.476608 
	C533.823181,224.826706 520.981445,246.406418 507.985596,267.891205 
	C507.711517,268.344330 507.091614,268.588257 506.326477,268.715302 
z" data-index="1" style="opacity: 1;"></path>
<path fill="#FFBD59" opacity="1.000000" stroke="none" d="
M1383.629150,252.756271 
	C1374.873169,257.882233 1365.796875,259.191406 1356.062744,259.122711 
	C1314.902832,258.832336 1273.739502,258.938141 1232.578125,259.090088 
	C1228.219604,259.106171 1226.870728,257.929993 1226.903564,253.485046 
	C1227.098022,227.156189 1227.100830,200.824387 1226.901245,174.495605 
	C1226.867432,170.021606 1228.245361,168.737076 1232.593140,168.910309 
	C1240.523560,169.226318 1248.475464,169.000137 1256.657104,168.250900 
	C1252.450806,166.169449 1248.207031,164.159958 1244.044556,161.994278 
	C1223.898315,151.512299 1217.264893,125.322800 1227.384766,106.196274 
	C1236.439697,89.082336 1250.449951,79.917686 1270.213379,79.967636 
	C1312.208130,80.073761 1354.203735,80.066849 1396.198242,79.903992 
	C1400.756226,79.886314 1402.155762,81.010582 1402.113159,85.748871 
	C1401.873169,112.410294 1401.910278,139.075577 1402.086792,165.737991 
	C1402.114746,169.971985 1400.808838,171.242798 1396.662109,171.083908 
	C1389.009766,170.790665 1381.338013,171.000092 1373.192749,171.453781 
	C1390.657349,178.057327 1401.548096,189.921524 1404.026123,208.615356 
	C1406.319702,225.917969 1397.994019,243.784485 1383.629150,252.756271 
z" data-index="2"></path>
<path fill="#FFBD59" opacity="1.000000" stroke="none" d="
M204.279129,114.787048 
	C210.953445,123.866707 216.324493,133.210022 219.398941,143.784439 
	C225.548630,164.936035 225.060333,185.880615 215.390915,205.718826 
	C210.611938,215.523590 204.462952,225.151031 197.016006,233.050797 
	C185.649933,245.107925 171.078598,252.951950 154.803345,256.830078 
	C148.962845,258.221771 142.816696,258.864197 136.803391,258.906769 
	C107.649559,259.113281 78.493088,258.927979 49.338608,259.081482 
	C45.236080,259.103088 43.901005,258.016479 43.911110,253.755356 
	C44.044662,197.444321 44.031769,141.132797 43.927696,84.821640 
	C43.920856,81.120583 44.984623,79.917671 48.723927,79.932434 
	C79.211555,80.052765 109.709679,79.537941 140.184006,80.185791 
	C156.556122,80.533844 171.695145,86.398300 184.708359,96.433807 
	C191.662338,101.796555 197.615417,108.457207 204.279129,114.787048 
z" data-index="3"></path>
<path fill="#FFBD59" opacity="1.000000" stroke="none" d="
M398.006561,227.948334 
	C385.105927,243.281342 370.090942,255.142899 350.565369,259.995178 
	C343.050476,261.862701 335.322632,263.117676 327.615631,263.920715 
	C306.171814,266.155121 286.621307,259.767883 269.365112,247.836823 
	C248.371948,233.321930 234.700806,213.408722 229.884521,187.708817 
	C225.856903,166.217270 228.177383,145.683502 238.055573,126.368576 
	C249.273560,104.433929 266.313843,88.618904 289.764404,79.888382 
	C303.257965,74.864807 317.136688,72.836868 331.239014,74.161674 
	C350.484009,75.969566 367.845825,82.810539 383.067230,95.319115 
	C392.760101,103.284470 400.541748,112.714256 406.520172,123.354355 
	C412.284546,133.613510 415.682770,144.937012 417.165009,156.906128 
	C419.141052,172.863083 418.018707,188.379379 411.831665,203.090881 
	C408.223450,211.670471 402.711761,219.449524 398.006561,227.948334 
z" data-index="4"></path>
<path fill="#FFBD59" opacity="1.000000" stroke="none" d="
M1062.000000,166.000000 
	C1062.000000,139.347992 1061.997559,113.195976 1062.001465,87.043968 
	C1062.002563,80.000755 1062.011475,80.000191 1069.172974,80.000114 
	C1095.824707,79.999825 1122.476562,79.952003 1149.128174,80.015030 
	C1170.599121,80.065811 1188.533447,88.535538 1202.651978,104.330658 
	C1217.954102,121.450027 1223.472412,141.648483 1220.139282,164.585815 
	C1217.566406,182.291122 1209.069824,196.308105 1196.264526,208.178589 
	C1195.681396,208.719086 1194.923828,209.071213 1194.148560,209.575394 
	C1202.840698,225.821274 1211.521362,242.045532 1220.592407,258.999664 
	C1218.152588,258.999664 1216.556274,258.999664 1214.959839,258.999664 
	C1165.987305,258.999664 1117.014526,258.932434 1068.042603,259.104828 
	C1063.204224,259.121857 1061.858521,257.768860 1061.894287,252.950821 
	C1062.107666,224.135193 1062.000000,195.317200 1062.000000,166.000000 
z" data-index="5"></path>
<path fill="#FFBD59" opacity="1.000000" stroke="none" d="
M901.999878,221.000000 
	C901.999878,173.880142 901.999878,127.260277 901.999878,80.271370 
	C903.636047,80.172852 905.068420,80.011627 906.500854,80.011215 
	C952.473450,79.998016 998.446289,80.054848 1044.418457,79.911552 
	C1048.755981,79.898033 1050.157471,81.034042 1050.099365,85.499924 
	C1049.861572,103.795700 1050.000000,122.096367 1050.000000,141.000366 
	C1039.152588,141.000366 1028.555786,141.160034 1017.967896,140.923981 
	C1013.557617,140.825668 1012.249023,142.503387 1013.359314,147.000214 
	C1023.711121,147.000214 1034.173828,147.160004 1044.627319,146.919815 
	C1048.681519,146.826675 1050.204102,147.881577 1050.097656,152.212387 
	C1049.811157,163.865082 1049.889526,175.531097 1050.065308,187.188171 
	C1050.119873,190.811859 1049.101685,192.169296 1045.272461,192.083862 
	C1034.640503,191.846619 1023.999756,192.001572 1013.379944,192.001572 
	C1012.327698,195.893753 1013.801208,197.078079 1017.294006,197.040817 
	C1027.949463,196.927124 1038.606934,196.999557 1049.590576,196.999557 
	C1049.732300,198.155273 1049.980957,199.244263 1049.982422,200.333588 
	C1050.006714,218.156265 1049.896851,235.980072 1050.079834,253.800919 
	C1050.120239,257.731964 1048.652954,259.035248 1044.966187,259.031952 
	C998.660400,258.990570 952.354553,258.975891 906.048950,259.061981 
	C902.519226,259.068542 901.928101,257.476593 901.957397,254.480179 
	C902.065002,243.487701 901.999939,232.493530 901.999878,221.000000 
z" data-index="6" style="opacity: 1;"></path>
</svg>