<svg viewBox="57.344 325.632 882.688 348.16" version="1.1" xmlns="http://www.w3.org/2000/svg" style="max-height: 500px" width="882.688" height="348.16">
<path style="visibility: visible;" data-index="0" d="M 817.72 387.21&#10;  A 0.59 0.59 0.0 0 0 816.88 386.68&#10;  L 804.59 392.41&#10;  A 0.81 0.81 0.0 0 0 804.14 393.31&#10;  Q 804.74 396.21 804.43 397.54&#10;  A 2.08 2.08 0.0 0 1 801.67 399.03&#10;  Q 798.98 398.01 797.11 395.62&#10;  Q 794.78 392.64 792.41 389.61&#10;  A 2.33 2.30 16.1 0 1 792.04 388.95&#10;  Q 790.86 385.71 793.70 383.99&#10;  Q 819.16 368.58 849.77 365.02&#10;  Q 852.40 364.72 854.11 366.01&#10;  C 855.42 367.01 855.87 366.83 857.31 366.89&#10;  C 863.47 367.14 863.57 376.30 857.58 377.11&#10;  Q 846.08 378.65 831.97 381.70&#10;  A 1.03 1.02 -9.6 0 0 831.17 382.82&#10;  L 832.15 391.07&#10;  A 0.75 0.75 0.0 0 1 831.50 391.90&#10;  L 831.08 391.95&#10;  A 1.01 1.01 0.0 0 1 829.97 391.07&#10;  L 829.07 383.52&#10;  A 0.71 0.71 0.0 0 0 828.28 382.89&#10;  L 826.76 383.07&#10;  A 1.08 1.08 0.0 0 0 825.82 384.27&#10;  C 827.47 397.95 829.19 408.47 828.86 420.37&#10;  C 828.75 424.49 822.83 425.67 820.73 422.38&#10;  C 819.65 420.69 819.77 418.10 819.58 415.24&#10;  Q 817.76 389.01 817.72 387.21&#10;  Z&#10;  M 857.13 374.58&#10;  A 1.75 1.73 -76.0 0 0 858.37 373.83&#10;  Q 860.11 371.22 858.03 369.87&#10;  A 1.24 1.24 0.0 0 0 856.14 370.67&#10;  Q 855.60 373.34 854.04 374.51&#10;  A 0.24 0.23 23.1 0 0 854.21 374.93&#10;  L 857.13 374.58&#10;  Z&#10;  M 814.4404 376.6365&#10;  A 4.18 0.33 -23.6 0 0 810.4779 378.0076&#10;  A 4.18 0.33 -23.6 0 0 806.7796 379.9835&#10;  A 4.18 0.33 -23.6 0 0 810.7421 378.6124&#10;  A 4.18 0.33 -23.6 0 0 814.4404 376.6365&#10;  Z&#10;  M 832.4967 378.8295&#10;  A 0.75 0.20 -10.8 0 0 831.7225 378.7735&#10;  A 0.75 0.20 -10.8 0 0 831.0233 379.1105&#10;  A 0.75 0.20 -10.8 0 0 831.7975 379.1665&#10;  A 0.75 0.20 -10.8 0 0 832.4967 378.8295&#10;  Z&#10;  M 828.2716 379.3371&#10;  A 1.88 0.26 -21.3 0 0 826.4256 379.7778&#10;  A 1.88 0.26 -21.3 0 0 824.7684 380.7029&#10;  A 1.88 0.26 -21.3 0 0 826.6144 380.2622&#10;  A 1.88 0.26 -21.3 0 0 828.2716 379.3371&#10;  Z&#10;  M 817.3646 382.8546&#10;  A 0.61 0.61 0.0 0 0 816.5619 382.5385&#10;  L 802.7877 388.5277&#10;  A 0.61 0.61 0.0 0 0 802.4715 389.3303&#10;  L 802.4954 389.3854&#10;  A 0.61 0.61 0.0 0 0 803.2981 389.7015&#10;  L 817.0723 383.7123&#10;  A 0.61 0.61 0.0 0 0 817.3885 382.9097&#10;  L 817.3646 382.8546&#10;  Z&#10;  M 820.5728 390.7809&#10;  A 0.37 0.37 0.0 0 0 820.1679 390.4495&#10;  L 820.1281 390.4535&#10;  A 0.37 0.37 0.0 0 0 819.7966 390.8584&#10;  L 820.5872 398.7791&#10;  A 0.37 0.37 0.0 0 0 820.9921 399.1105&#10;  L 821.0319 399.1065&#10;  A 0.37 0.37 0.0 0 0 821.3634 398.7016&#10;  L 820.5728 390.7809&#10;  Z" fill="#ff7e24"/>
<path style="visibility: visible;" data-index="1" d="M 864.96 426.34&#10;  A 0.38 0.38 0.0 0 0 864.27 426.34&#10;  C 862.34 430.53 858.96 435.96 853.41 432.71&#10;  Q 850.38 430.93 848.53 428.37&#10;  A 2.75 2.69 -64.6 0 1 848.01 426.86&#10;  Q 847.90 423.58 846.80 418.96&#10;  Q 843.89 406.70 838.94 391.29&#10;  Q 838.03 388.46 839.89 386.60&#10;  C 847.13 379.39 853.42 407.20 854.28 410.55&#10;  A 0.24 0.23 -39.5 0 0 854.72 410.59&#10;  Q 862.31 395.20 865.30 377.79&#10;  Q 865.84 374.65 868.50 374.34&#10;  C 871.78 373.96 873.07 375.75 876.34 378.32&#10;  A 2.15 2.11 -70.8 0 1 877.15 380.04&#10;  Q 877.08 383.15 876.44 386.74&#10;  Q 873.34 403.99 866.89 420.50&#10;  A 1.78 1.68 54.1 0 0 866.78 421.34&#10;  L 867.44 426.92&#10;  A 1.03 1.03 0.0 0 1 865.49 427.48&#10;  L 864.96 426.34&#10;  Z&#10;  M 874.2846 380.8013&#10;  A 2.38 0.34 -80.7 0 0 873.5645 383.0951&#10;  A 2.38 0.34 -80.7 0 0 873.5154 385.4987&#10;  A 2.38 0.34 -80.7 0 0 874.2355 383.2049&#10;  A 2.38 0.34 -80.7 0 0 874.2846 380.8013&#10;  Z&#10;  M 873.3843 386.3411&#10;  A 4.24 0.34 -78.1 0 0 872.1773 390.4199&#10;  A 4.24 0.34 -78.1 0 0 871.6357 394.6389&#10;  A 4.24 0.34 -78.1 0 0 872.8427 390.5601&#10;  A 4.24 0.34 -78.1 0 0 873.3843 386.3411&#10;  Z&#10;  M 841.13 388.84&#10;  A 0.52 0.43 50.9 0 0 841.13 389.66&#10;  Q 841.61 390.05 842.13 389.65&#10;  A 0.54 0.53 -52.3 0 0 842.02 388.73&#10;  Q 841.71 388.60 841.13 388.84&#10;  Z&#10;  M 864.3914 391.6480&#10;  A 0.97 0.18 -76.2 0 0 863.9852 392.5471&#10;  A 0.97 0.18 -76.2 0 0 863.9286 393.5320&#10;  A 0.97 0.18 -76.2 0 0 864.3348 392.6329&#10;  A 0.97 0.18 -76.2 0 0 864.3914 391.6480&#10;  Z&#10;  M 871.22 396.05&#10;  L 865.44 414.49&#10;  A 0.03 0.03 0.0 0 0 865.46 414.53&#10;  L 865.78 414.63&#10;  A 0.17 0.17 0.0 0 0 865.98 414.53&#10;  L 869.06 406.30&#10;  A 1.40 1.29 -33.1 0 0 869.16 405.91&#10;  L 869.42 403.77&#10;  A 2.66 2.42 60.7 0 1 869.51 403.38&#10;  L 871.79 396.15&#10;  A 0.10 0.09 23.6 0 0 871.74 396.04&#10;  L 871.56 395.92&#10;  A 0.23 0.23 0.0 0 0 871.22 396.05&#10;  Z&#10;  M 864.36 417.77&#10;  A 0.43 0.43 0.0 0 0 863.81 418.01&#10;  C 861.86 422.99 860.27 426.99 856.58 430.64&#10;  A 0.10 0.09 -36.3 0 0 856.56 430.75&#10;  L 856.67 430.98&#10;  A 0.28 0.28 0.0 0 0 857.08 431.09&#10;  C 861.04 428.33 863.05 422.29 864.61 418.33&#10;  A 0.43 0.41 -68.6 0 0 864.38 417.78&#10;  L 864.36 417.77&#10;  Z" fill="#ff7e24"/>
<path style="visibility: visible; opacity: 1;" data-index="2" d="M 181.24 490.39&#10;  Q 180.56 491.28 180.04 492.91&#10;  A 1.62 1.61 -36.7 0 0 179.97 493.38&#10;  L 179.97 616.23&#10;  A 2.23 2.21 -37.6 0 1 179.89 616.82&#10;  Q 177.29 626.70 167.69 626.86&#10;  Q 138.21 627.34 124.50 626.82&#10;  Q 121.01 626.69 116.82 623.88&#10;  A 2.73 2.69 -0.4 0 1 116.11 623.19&#10;  Q 113.17 619.06 113.17 613.25&#10;  Q 113.14 507.48 113.21 393.75&#10;  C 113.22 389.42 113.23 383.69 116.32 381.22&#10;  Q 119.73 378.49 122.84 378.23&#10;  Q 127.91 377.82 163.60 378.01&#10;  A 4.88 4.76 -35.7 0 1 164.87 378.20&#10;  Q 173.78 380.83 178.52 387.23&#10;  Q 187.41 399.24 233.41 465.36&#10;  Q 235.62 468.52 236.89 469.11&#10;  Q 239.10 470.12 241.19 467.19&#10;  Q 271.19 425.22 295.14 391.70&#10;  Q 299.97 384.94 302.93 382.82&#10;  Q 307.59 379.49 313.22 378.17&#10;  A 5.02 4.46 -48.4 0 1 314.32 378.04&#10;  Q 332.69 377.90 350.69 378.03&#10;  Q 352.29 378.04 355.76 379.49&#10;  C 360.33 381.41 361.69 386.56 361.69 391.28&#10;  Q 361.93 572.77 361.61 605.72&#10;  Q 361.50 616.51 350.48 616.89&#10;  Q 338.92 617.29 322.25 617.02&#10;  C 318.72 616.96 315.50 616.80 313.01 614.71&#10;  Q 309.05 611.39 309.05 606.24&#10;  Q 309.04 489.15 309.05 480.75&#10;  Q 309.05 477.43 308.39 475.99&#10;  A 1.90 1.89 5.9 0 0 307.76 475.22&#10;  Q 305.28 473.45 303.24 476.25&#10;  Q 274.04 516.31 250.43 548.94&#10;  Q 243.76 558.17 232.68 554.75&#10;  Q 228.64 553.51 224.87 548.18&#10;  Q 215.65 535.13 183.35 490.42&#10;  A 1.32 1.31 -44.1 0 0 181.24 490.39&#10;  Z&#10;  M 160.0329 432.4445&#10;  A 7.57 7.57 0.0 0 0 152.4761 424.8613&#10;  L 139.5762 424.8388&#10;  A 7.57 7.57 0.0 0 0 131.9930 432.3955&#10;  L 131.9671 447.2155&#10;  A 7.57 7.57 0.0 0 0 139.5239 454.7987&#10;  L 152.4238 454.8212&#10;  A 7.57 7.57 0.0 0 0 160.0070 447.2645&#10;  L 160.0329 432.4445&#10;  Z&#10;  M 160.0045 488.7111&#10;  A 7.71 7.71 0.0 0 0 152.2676 481.0280&#10;  L 139.6277 481.0722&#10;  A 7.71 7.71 0.0 0 0 131.9446 488.8090&#10;  L 131.9955 503.3889&#10;  A 7.71 7.71 0.0 0 0 139.7324 511.0720&#10;  L 152.3723 511.0278&#10;  A 7.71 7.71 0.0 0 0 160.0554 503.2910&#10;  L 160.0045 488.7111&#10;  Z&#10;  M 160.0437 544.1810&#10;  A 7.30 7.30 0.0 0 0 152.7183 536.9065&#10;  L 139.2183 536.9537&#10;  A 7.30 7.30 0.0 0 0 131.9439 544.2791&#10;  L 131.9963 559.2990&#10;  A 7.30 7.30 0.0 0 0 139.3217 566.5735&#10;  L 152.8217 566.5263&#10;  A 7.30 7.30 0.0 0 0 160.0961 559.2009&#10;  L 160.0437 544.1810&#10;  Z&#10;  M 160.09 600.04&#10;  A 6.95 6.95 0.0 0 0 153.14 593.09&#10;  L 138.90 593.09&#10;  A 6.95 6.95 0.0 0 0 131.95 600.04&#10;  L 131.95 611.24&#10;  A 6.95 6.95 0.0 0 0 138.90 618.19&#10;  L 153.14 618.19&#10;  A 6.95 6.95 0.0 0 0 160.09 611.24&#10;  L 160.09 600.04&#10;  Z" fill="#ff7e24"/>
<ellipse ry="23.68" rx="24.39" transform="translate(412.65,404.43) rotate(-95.4)" cy="0.00" cx="0.00" fill="#ff7e24"/>
<path style="visibility: visible; opacity: 1;" data-index="3" d="M 744.06 462.34&#10;  A 0.62 0.62 0.0 0 0 745.06 461.86&#10;  Q 745.03 443.19 744.91 401.45&#10;  Q 744.87 389.51 745.91 387.18&#10;  Q 748.60 381.09 758.03 381.19&#10;  Q 769.26 381.30 770.45 381.26&#10;  Q 778.78 380.99 781.79 382.78&#10;  Q 787.31 386.08 787.31 394.01&#10;  Q 787.35 495.75 787.35 599.33&#10;  C 787.35 608.16 787.91 616.22 776.49 616.93&#10;  Q 772.58 617.17 760.74 617.13&#10;  Q 753.10 617.10 751.35 616.53&#10;  Q 746.57 614.96 745.14 609.31&#10;  A 2.40 1.94 -57.5 0 1 745.08 608.79&#10;  L 745.08 602.72&#10;  A 0.92 0.92 0.0 0 0 743.53 602.05&#10;  Q 727.33 617.19 705.25 618.91&#10;  C 698.50 619.44 689.84 619.42 683.07 618.07&#10;  Q 664.97 614.46 651.50 602.97&#10;  Q 632.78 587.01 624.62 562.61&#10;  Q 620.99 551.77 620.02 538.99&#10;  Q 619.27 529.21 620.13 518.26&#10;  Q 620.46 513.97 622.13 506.54&#10;  C 626.16 488.52 636.87 473.26 651.68 461.44&#10;  C 670.68 446.26 696.92 442.33 720.15 449.12&#10;  C 729.02 451.71 736.06 455.90 744.06 462.34&#10;  Z&#10;  M 679.96 529.10&#10;  Q 679.91 549.81 679.92 556.55&#10;  C 679.93 562.96 682.87 567.48 689.48 567.29&#10;  Q 691.86 567.23 697.19 563.82&#10;  Q 701.29 561.20 736.20 539.93&#10;  Q 743.33 535.59 743.34 529.25&#10;  Q 743.36 522.91 736.25 518.53&#10;  Q 701.44 497.10 697.35 494.46&#10;  Q 692.04 491.03 689.66 490.95&#10;  C 683.05 490.73 680.09 495.24 680.05 501.65&#10;  Q 680.01 508.39 679.96 529.10&#10;  Z" fill="#ff7e24"/>
<path style="visibility: visible; opacity: 1;" data-index="4" d="M 500.15 465.86&#10;  A 0.25 0.25 0.0 0 0 500.59 465.99&#10;  C 505.01 460.81 510.77 455.39 517.19 452.22&#10;  Q 529.07 446.35 542.43 446.20&#10;  C 547.11 446.15 549.69 446.65 554.79 447.17&#10;  A 3.29 3.28 59.1 0 1 555.66 447.39&#10;  C 557.47 448.14 559.19 447.86 561.07 448.49&#10;  Q 569.44 451.32 570.96 452.06&#10;  Q 590.08 461.32 598.35 480.69&#10;  Q 601.44 487.93 602.98 497.20&#10;  Q 604.08 503.86 603.99 514.36&#10;  Q 603.88 528.02 604.00 603.19&#10;  Q 604.01 609.74 602.55 611.97&#10;  C 599.88 616.07 596.32 616.94 591.21 617.05&#10;  Q 588.36 617.12 572.16 617.02&#10;  Q 563.59 616.97 561.49 609.04&#10;  Q 561.03 607.31 561.05 601.00&#10;  Q 561.11 571.14 561.09 518.00&#10;  Q 561.09 510.00 558.27 502.88&#10;  Q 554.11 492.37 544.02 488.40&#10;  Q 535.71 485.14 526.24 486.09&#10;  C 514.41 487.28 504.89 494.45 501.46 506.00&#10;  Q 499.64 512.11 499.53 518.50&#10;  Q 499.38 526.81 499.50 605.30&#10;  Q 499.50 609.49 497.78 612.48&#10;  C 495.85 615.84 491.24 616.86 487.25 616.99&#10;  Q 483.90 617.10 470.07 617.05&#10;  Q 463.70 617.03 461.69 615.61&#10;  Q 457.15 612.41 457.09 606.21&#10;  Q 457.02 600.16 457.05 461.76&#10;  Q 457.05 456.22 458.12 454.43&#10;  Q 459.89 451.45 463.67 450.11&#10;  A 3.52 3.45 -55.6 0 1 464.74 449.90&#10;  Q 482.67 449.14 491.43 450.08&#10;  Q 495.97 450.57 498.91 455.99&#10;  A 0.91 0.90 -62.9 0 1 499.01 456.31&#10;  L 500.15 465.86&#10;  Z" fill="#ff7e24"/>
<rect rx="10.51" height="168.28" width="42.92" transform="translate(411.57,532.81) rotate(0.1)" y="-84.14" x="-21.46" fill="#ff7e24"/>
<rect rx="10.06" height="167.34" width="42.64" y="449.68" x="809.33" fill="#ff7e24"/>
</svg>